<svg width="1024" height="1024" viewBox="0 0 1024 1024" fill="none" xmlns="http://www.w3.org/2000/svg">
<rect width="1024" height="1024" rx="220" fill="url(#paint0_linear_840_5117)"/>
<path d="M657.554 211.203C657.554 211.203 656.381 227.973 659.578 236.719C663.254 246.774 665.458 251.433 664.381 253.752C663.207 256.281 654.223 254.546 654.179 254.538L650.676 267.985C650.676 267.985 653.305 277.899 646.125 275.896C635.101 272.821 627.451 270.429 621.876 268.285C620.841 269.813 619.734 271.232 618.695 272.471C619.776 272.883 620.836 273.331 621.869 273.818C621.869 273.818 635.318 279.901 645.158 290.086C660.376 305.838 686.006 309.175 719.419 332.787C741.481 314.26 760.313 315.593 794.861 300.192C794.771 297.394 794.494 275.874 806.844 268.407C818.134 261.58 814.006 252.811 817.575 253.741C822.547 255.036 819.661 269.659 817.218 274.369C832.231 268.407 829.027 259.451 841.033 253.742C845.929 251.414 851.904 259.372 847.203 274.369C843.474 286.268 838.36 295.525 829.678 304.476C819.416 315.056 803.958 318.479 803.923 318.487L803.807 318.255C797.938 324.234 756.501 364.793 715.146 361.965C685.78 358.205 671.926 358.74 643.915 340.517C629.544 371.831 615.383 385.1 544.191 456.925C640.604 472.559 667.732 518.784 674.839 525.683C680.672 531.345 683.043 545.484 686.552 553.423C711.21 609.212 710.593 636.337 737.101 690.641C744.764 706.341 757.494 697.191 773.721 715.667C796.793 741.935 806.581 728.751 809.478 736.542C810.561 739.456 795.114 756.021 771.823 736.542C761.207 727.662 755.286 725.421 744.156 730.149C717.588 741.435 721.13 712.742 715.146 699.832C682.853 630.172 645.865 630.788 645.865 561.746C581.755 573.15 545.248 569.562 507.942 559.59C517.89 537.969 527.894 516.132 534.255 494.237C536.018 488.168 530.435 484.676 527.894 491.38C486.57 600.39 438.672 646.309 381.675 683.778C377.616 686.446 363.32 694.259 357.817 698.544C324.112 724.791 309.009 726.833 239.398 760.761C210.828 774.686 221.768 783.37 214.54 817.251C210.072 838.198 242.815 848.355 232.844 848.355L229.989 848.348C215.702 848.26 201.405 846.847 198.9 824.234C196.666 804.072 169.126 789.681 176.27 777.315C183.681 764.488 199.782 760.302 218.727 744.637C289.448 686.16 286.596 648.559 357.817 648.559C363.682 620.629 374.853 579.852 404.189 547.174C397.476 471.485 474.283 457.52 480.707 444.393C492.823 419.633 480.707 352.504 501.934 317.159C470.094 332.786 456.742 335.743 428.199 348.595C412.293 387.688 377.645 434.848 375.261 438.073C375.263 438.08 375.266 438.086 375.269 438.093C369.541 447.469 368.462 459.254 361.922 473.039C360.149 476.775 354.102 475.361 353.67 470.854C353.116 465.063 354.033 464.06 352.336 462.724C339.371 470.453 324.915 480.804 311.202 486.021C299.609 490.432 294.016 486.767 299.554 482.139C326.855 459.328 350.083 436.683 359.01 424.868C359.035 424.887 359.061 424.905 359.086 424.924C388.429 375.402 370.215 361.08 404.189 330.441C424.009 312.566 511.027 258.518 559.469 272.347C559.482 272.344 559.905 272.236 560.68 272.055C564.026 268.644 567.88 263.956 571.027 258.05C578.363 255.261 585.921 242.144 585.932 242.125C585.934 242.141 587.328 251.36 595.235 249.441C598.659 248.61 598.352 245.235 597.064 244.445C596.741 244.449 596.415 244.455 596.086 244.461C596.082 244.484 596.076 244.506 596.072 244.529C593.324 246.328 590.275 243.302 590.275 238.627C586.566 233.901 586.135 227.838 589.618 225.423C591.438 224.162 597.885 223.732 599.776 227.089C600.268 227.964 600.467 229.071 600.48 230.272C601.483 229.209 602.508 228.099 603.47 227.206C613.7 217.702 626.414 216.067 632.772 215.589C647.444 214.488 657.554 211.203 657.554 211.203ZM584.099 186.985C598.727 183.763 596.624 173.259 610.164 176.141C631.529 180.689 632.189 169.696 654.017 183.518C666.206 191.237 658.687 201.876 658.665 201.908C658.665 201.908 648.812 206.988 633.588 208.131C618.971 209.229 606.792 213.083 598.393 220.594C595.496 219.267 587.753 217.416 582.628 223.353C578.12 228.575 581.815 235.81 581.815 235.81C581.815 235.81 567.645 250.67 559.141 254.249C545.275 253.657 543.882 226.866 568.335 226.866C566.668 199.496 570.279 190.029 584.099 186.985Z" fill="black"/>
<defs>
<linearGradient id="paint0_linear_840_5117" x1="622.5" y1="-114.5" x2="325.5" y2="1074" gradientUnits="userSpaceOnUse">
<stop stop-color="#FFB637"/>
<stop offset="1" stop-color="#FF4C38"/>
</linearGradient>
</defs>
</svg>
